<?xml version="1.0" encoding="UTF-8"?>
<svg version="1.1" xmlns="http://www.w3.org/2000/svg" width="263" height="263">
<path d="M0 0 C9.68124135 0.20398077 22.03011969 5.35428382 29.375 11.5 C30.68851754 15.24377098 30.86356735 17.22642119 29.4362793 20.94702148 C27.9675647 23.85975524 26.38634617 26.67799816 24.75 29.5 C24.15751465 30.55598389 23.5650293 31.61196777 22.95458984 32.69995117 C21.11159682 35.97651869 19.2444078 39.23844838 17.375 42.5 C16.29498893 44.41169611 15.21678126 46.32441249 14.140625 48.23828125 C12.03010759 51.98841753 9.90895163 55.73224623 7.78125 59.47265625 C5.31536779 63.81913628 2.88262901 68.18307411 0.46875 72.55859375 C0.13789398 73.15758987 -0.19296204 73.756586 -0.53384399 74.37373352 C-2.13934746 77.28108992 -3.74127276 80.19026027 -5.33740234 83.1027832 C-18.82764388 107.54991365 -18.82764388 107.54991365 -30.625 111.5 C-38.80751721 112.59948958 -45.95260302 111.54309074 -52.625 106.5 C-58.81278366 100.23299863 -62.91325177 92.61863327 -67.3125 85.0625 C-68.1422416 83.64954689 -68.97274052 82.23703827 -69.80395508 80.82495117 C-71.53634958 77.88048258 -73.26545378 74.93411973 -74.9921875 71.98632812 C-78.83579594 65.42996156 -82.71542643 58.89499174 -86.59658813 52.36080933 C-87.77579549 50.37433194 -88.95294366 48.38664799 -90.12963867 46.39868164 C-90.87148202 45.14723888 -91.61342331 43.89585419 -92.35546875 42.64453125 C-92.71008179 42.04523804 -93.06469482 41.44594482 -93.43005371 40.82849121 C-95.22306781 37.8102062 -97.045425 34.81583157 -98.9230957 31.84936523 C-99.29296097 31.26197067 -99.66282623 30.67457611 -100.04389954 30.06938171 C-101.05814565 28.46512039 -102.08149303 26.8666233 -103.10546875 25.26855469 C-105.34249437 21.19274001 -105.69385087 19.02206136 -104.625 14.5 C-100.92207055 10.97042867 -96.79043978 8.94930586 -92.1875 6.875 C-91.54490234 6.5759375 -90.90230469 6.276875 -90.24023438 5.96875 C-80.68936302 1.58601513 -80.68936302 1.58601513 -75.625 1.375 C-66.98273573 4.6158491 -61.67309046 18.63878947 -57.1875 26.3125 C-55.54561017 29.11223575 -53.9005639 31.91009743 -52.25390625 34.70703125 C-51.85958405 35.37864288 -51.46526184 36.05025452 -51.05899048 36.74221802 C-48.11055169 41.74136406 -45.02263267 46.62635851 -41.82006836 51.4675293 C-40.625 53.5 -40.625 53.5 -40.625 55.5 C-38.645 55.5 -36.665 55.5 -34.625 55.5 C-34.36323975 54.80213379 -34.10147949 54.10426758 -33.83178711 53.38525391 C-32.51481087 50.23655367 -30.96669603 47.323636 -29.31640625 44.3359375 C-28.99354141 43.75005356 -28.67067657 43.16416962 -28.33802795 42.56053162 C-27.29113058 40.66351998 -26.23964992 38.76910277 -25.1875 36.875 C-24.65234772 35.90873184 -24.65234772 35.90873184 -24.10638428 34.92294312 C-19.54483332 26.68693035 -14.94911472 18.47101121 -10.25 10.3125 C-9.80470947 9.53632324 -9.35941895 8.76014648 -8.90063477 7.96044922 C-4.64824735 0.64113756 -4.64824735 0.64113756 0 0 Z " fill="#4BCDCD" transform="translate(166.625,-0.5)"/>
<path d="M0 0 C6.14352801 0.09680215 10.8131714 3.71159306 15.82461548 6.94223022 C18.28043159 8.52515901 20.76007086 10.06886044 23.239151 11.61500549 C24.51943213 12.41373763 25.79850924 13.21440279 27.07640076 14.01695251 C33.30777186 17.92179952 39.66365616 21.58473666 46.0546875 25.22265625 C54.56341017 30.09849214 63.03129699 35.03377184 71.4296875 40.09765625 C72.3678833 40.65735107 73.3060791 41.2170459 74.27270508 41.79370117 C83.19292702 47.20981251 90.46600157 52.21372095 93.7421875 62.53515625 C95.06643708 71.5493464 93.2418088 77.68061738 88.03076172 84.90917969 C85.51799687 87.79239909 83.14110404 89.41669698 79.859375 91.3671875 C79.29161346 91.70659866 78.72385193 92.04600983 78.1388855 92.39570618 C72.39310975 95.80335508 66.54856267 99.0376238 60.68283081 102.23330688 C57.51502924 103.95945125 54.35345173 105.69693418 51.19140625 107.43359375 C50.55797806 107.78120255 49.92454987 108.12881134 49.27192688 108.48695374 C43.37985349 111.72465912 37.52643193 115.02886663 31.6796875 118.34765625 C30.75881348 118.86690674 29.83793945 119.38615723 28.88916016 119.92114258 C24.27924849 122.52052259 19.68863601 125.14711334 15.12109375 127.8203125 C13.32832487 128.85060827 11.53536435 129.88057069 9.7421875 130.91015625 C8.93515381 131.39331299 8.12812012 131.87646973 7.29663086 132.37426758 C3.46708524 134.55011811 1.3353074 135.53812482 -3.16015625 135.515625 C-6.90024055 134.33181522 -8.14676989 132.71646494 -9.9921875 129.30859375 C-18.80790424 109.99020212 -18.80790424 109.99020212 -17.2578125 101.53515625 C-13.88355167 98.38347904 -10.13691428 96.22488169 -6.09375 94.03125 C-5.21492409 93.55106163 -5.21492409 93.55106163 -4.31834412 93.06117249 C-2.42539989 92.02750939 -0.52911722 91.00013895 1.3671875 89.97265625 C3.98216679 88.54736683 6.5949899 87.11816553 9.20703125 85.6875 C9.85249405 85.3342868 10.49795685 84.98107361 11.16297913 84.61715698 C17.60799257 81.07981955 23.96505299 77.39607676 30.28173828 73.63452148 C35.53553298 70.53515625 35.53553298 70.53515625 37.7421875 70.53515625 C37.7421875 68.55515625 37.7421875 66.57515625 37.7421875 64.53515625 C37.06148193 64.28838135 36.38077637 64.04160645 35.67944336 63.78735352 C32.19119591 62.30026008 28.99284767 60.44240767 25.74609375 58.5 C24.74110085 57.90367516 24.74110085 57.90367516 23.71580505 57.29530334 C22.29689714 56.45225482 20.8790356 55.60744302 19.4621582 54.76098633 C17.34528743 53.49690043 15.22472707 52.23920685 13.10351562 50.98242188 C6.32056014 46.95290904 -0.42872315 42.86752466 -7.10546875 38.6640625 C-8.77814819 37.61520874 -8.77814819 37.61520874 -10.48461914 36.54516602 C-13.05784671 34.6800914 -14.69214461 33.28110746 -16.2578125 30.53515625 C-16.07760129 24.98865561 -14.200837 20.44237584 -11.9453125 15.47265625 C-11.64947266 14.79138672 -11.35363281 14.11011719 -11.04882812 13.40820312 C-5.48615669 0.9012032 -5.48615669 0.9012032 0 0 Z " fill="#4ACDCD" transform="translate(17.2578125,61.46484375)"/>
<path d="M0 0 C9.43591353 4.81523422 14.19640451 15.5876124 19.3125 24.375 C20.1422416 25.78795311 20.97274052 27.20046173 21.80395508 28.61254883 C23.53634958 31.55701742 25.26545378 34.50338027 26.9921875 37.45117188 C30.83579594 44.00753844 34.71542643 50.54250826 38.59658813 57.07669067 C39.77579549 59.06316806 40.95294366 61.05085201 42.12963867 63.03881836 C42.87148202 64.29026112 43.61342331 65.54164581 44.35546875 66.79296875 C44.71008179 67.39226196 45.06469482 67.99155518 45.43005371 68.60900879 C47.22306781 71.6272938 49.045425 74.62166843 50.9230957 77.58813477 C51.29296097 78.17552933 51.66282623 78.76292389 52.04389954 79.36811829 C53.05814565 80.97237961 54.08149303 82.5708767 55.10546875 84.16894531 C57.34249437 88.24475999 57.69385087 90.41543864 56.625 94.9375 C53.00260107 98.37102152 48.87480024 100.50411701 44.375 102.5625 C43.71258301 102.86591309 43.05016602 103.16932617 42.36767578 103.48193359 C37.47856658 105.66455032 33.00041807 107.41729825 27.625 107.9375 C23.06442466 105.93687025 20.9475931 102.90910495 18.5 98.75 C18.10111572 98.09233643 17.70223145 97.43467285 17.29125977 96.75708008 C15.72263101 94.15830706 14.17514707 91.54734261 12.625 88.9375 C11.4424036 86.9628655 10.25795358 84.98934837 9.0736084 83.01576233 C6.89836915 79.38841436 4.7300574 75.75694196 2.5625 72.125 C1.91314484 71.03827499 1.91314484 71.03827499 1.25067139 69.92959595 C0.00629644 67.84430842 -1.23383748 65.75656074 -2.47265625 63.66796875 C-3.04076271 62.71729019 -3.04076271 62.71729019 -3.62034607 61.74740601 C-5.1505578 59.15897385 -6.42056015 56.80081955 -7.375 53.9375 C-11.07226195 54.35292714 -11.07226195 54.35292714 -13.93847656 56.56445312 C-14.37643555 57.27537109 -14.81439453 57.98628906 -15.265625 58.71875 C-15.77029297 59.53472656 -16.27496094 60.35070312 -16.79492188 61.19140625 C-19.68538805 66.2148864 -22.42418015 71.31000934 -25.125 76.4375 C-29.33603885 84.3446713 -33.58133581 92.21566049 -38.125 99.9375 C-38.73359863 100.97680664 -38.73359863 100.97680664 -39.35449219 102.03710938 C-40.87320422 104.59148587 -42.26492582 106.82742582 -44.375 108.9375 C-54.70369 110.3621469 -65.35444485 105.35093239 -74.3125 100.5 C-77.3451875 97.96244515 -78.22036674 96.9530041 -78.60473633 93.08569336 C-78.08587468 88.23397855 -75.1536058 84.08260645 -72.75 79.9375 C-72.15823975 78.88296631 -71.56647949 77.82843262 -70.95678711 76.74194336 C-69.11283568 73.46405168 -67.2447253 70.20074181 -65.375 66.9375 C-64.28315268 65.00243122 -63.19322621 63.06627702 -62.10546875 61.12890625 C-59.98629048 57.35897905 -57.85688236 53.59514595 -55.71875 49.8359375 C-51.50915217 42.42654417 -47.36128956 34.98258728 -43.21899414 27.53540039 C-22.13467964 -10.24442684 -22.13467964 -10.24442684 0 0 Z " fill="#4ACDCD" transform="translate(144.375,154.0625)"/>
<path d="M0 0 C6.15236061 7.35282122 11.14288476 19.5910886 11.6875 29.25 C10.83715801 33.88822902 9.77410193 34.36474192 6 37 C3.97072152 38.21157772 1.91332756 39.37681164 -0.1640625 40.50390625 C-1.04288841 40.98382271 -1.04288841 40.98382271 -1.93946838 41.47343445 C-3.18834404 42.15510842 -4.43831696 42.83477542 -5.68930054 43.51257324 C-8.95463419 45.2836959 -12.20890203 47.0749708 -15.46484375 48.86328125 C-16.11030655 49.21732025 -16.75576935 49.57135925 -17.42079163 49.93612671 C-23.02650958 53.01121613 -28.62465629 56.09779547 -34.1875 59.25 C-34.96367676 59.67869385 -35.73985352 60.1073877 -36.53955078 60.54907227 C-37.24192871 60.95053467 -37.94430664 61.35199707 -38.66796875 61.765625 C-39.56938599 62.27270996 -39.56938599 62.27270996 -40.48901367 62.79003906 C-42.38625508 64.30930363 -43.10581679 65.75778667 -44 68 C-44 68.66 -44 69.32 -44 70 C-43.31929443 70.2467749 -42.63858887 70.4935498 -41.93725586 70.74780273 C-38.44900841 72.23489617 -35.25066017 74.09274858 -32.00390625 76.03515625 C-31.33391098 76.43270615 -30.66391571 76.83025604 -29.97361755 77.23985291 C-28.55470964 78.08290143 -27.1368481 78.92771323 -25.7199707 79.77416992 C-23.60309993 81.03825582 -21.48253957 82.2959494 -19.36132812 83.55273438 C-15.22510433 86.00943468 -11.10938568 88.49872627 -7 91 C-6.32604187 91.40708191 -5.65208374 91.81416382 -4.95770264 92.23358154 C-3.01452438 93.41271262 -1.08220934 94.60782763 0.84765625 95.80859375 C1.96277588 96.49622803 3.07789551 97.1838623 4.22680664 97.89233398 C7.12146257 100.09231326 8.56537205 101.67382936 10 105 C9.98227345 111.22982033 6.73617806 117.38046894 4.0625 122.875 C3.71509766 123.62007813 3.36769531 124.36515625 3.00976562 125.1328125 C-0.07018957 131.58273749 -0.07018957 131.58273749 -3 134 C-10.7184223 135.506251 -15.73917323 131.68211753 -22.08242798 127.59292603 C-24.53824409 126.00999724 -27.01788336 124.46629581 -29.4969635 122.92015076 C-30.77724463 122.12141862 -32.05632174 121.32075346 -33.33421326 120.51820374 C-39.56558436 116.61335673 -45.92146866 112.95041959 -52.3125 109.3125 C-60.82122267 104.43666411 -69.28910949 99.50138441 -77.6875 94.4375 C-79.0947937 93.59795776 -79.0947937 93.59795776 -80.53051758 92.74145508 C-89.45073952 87.32534374 -96.72381407 82.3214353 -100 72 C-101.09336751 64.55742815 -100.43916715 58.18312567 -96 52 C-91.53007055 46.95700267 -86.4487519 43.0895198 -80.5546875 39.85546875 C-79.4915332 39.26878418 -78.42837891 38.68209961 -77.33300781 38.07763672 C-76.19186523 37.4538916 -75.05072266 36.83014648 -73.875 36.1875 C-72.66996603 35.5241111 -71.46521843 34.86020178 -70.26074219 34.19580078 C-67.75731857 32.81547317 -65.25268111 31.43738836 -62.74707031 30.06103516 C-56.90488783 26.85008048 -51.07746537 23.61257465 -45.25 20.375 C-44.1458374 19.76213135 -43.0416748 19.1492627 -41.90405273 18.51782227 C-33.23870624 13.70275025 -24.60172645 8.83859298 -15.97949219 3.94677734 C-15.0877832 3.44098145 -14.19607422 2.93518555 -13.27734375 2.4140625 C-12.10546509 1.74818115 -12.10546509 1.74818115 -10.90991211 1.06884766 C-6.78496561 -1.2396038 -4.6872634 -1.35056742 0 0 Z " fill="#4ACDCD" transform="translate(252,67)"/>
<path d="M0 0 C3.82158012 2.43191462 5.32820787 4.48462362 6.75 8.75 C7.23101262 13.75253129 6.68263893 17.0678971 4.01171875 21.23828125 C1.05983089 24.7750633 -2.26565102 25.62471922 -6.6875 26.1875 C-11.00346216 25.65746956 -13.91119913 24.53664775 -17.25 21.75 C-20.23719005 17.41375637 -20.80794988 13.9575322 -20.25 8.75 C-18.65093249 4.59242447 -17.10311765 2.0377886 -13.25 -0.25 C-8.50101245 -1.83299585 -4.68540528 -1.80207896 0 0 Z " fill="#4ACDCD" transform="translate(138.25,119.25)"/>
</svg>
